<svg width="26" height="26" viewBox="0 0 26 26" fill="none" xmlns="http://www.w3.org/2000/svg">
<path d="M22.5766 4.99417C22.0233 4.44059 21.3663 4.00145 20.6433 3.70184C19.9202 3.40223 19.1452 3.24802 18.3625 3.24802C17.5798 3.24802 16.8047 3.40223 16.0817 3.70184C15.3586 4.00145 14.7016 4.44059 14.1483 4.99417L13 6.1425L11.8516 4.99417C10.734 3.8765 9.21809 3.2486 7.63747 3.2486C6.05685 3.2486 4.54097 3.8765 3.4233 4.99417C2.30563 6.11183 1.67773 7.62771 1.67773 9.20833C1.67773 10.789 2.30563 12.3048 3.4233 13.4225L4.57163 14.5708L13 22.9992L21.4283 14.5708L22.5766 13.4225C23.1302 12.8692 23.5693 12.2122 23.869 11.4891C24.1686 10.7661 24.3228 9.99103 24.3228 9.20833C24.3228 8.42564 24.1686 7.65061 23.869 6.92753C23.5693 6.20445 23.1302 5.54749 22.5766 4.99417Z" stroke="#191A15" stroke-width="2" stroke-linecap="round" stroke-linejoin="round"/>
</svg>
