<svg width="25" height="20" viewBox="0 0 25 20" fill="none" xmlns="http://www.w3.org/2000/svg">
<path d="M24.1667 19.1667H0.833333C0.61232 19.1667 0.400358 19.0789 0.244078 18.9226C0.0877973 18.7663 0 18.5543 0 18.3333C0 18.1123 0.0877973 17.9004 0.244078 17.7441C0.400358 17.5878 0.61232 17.5 0.833333 17.5H24.1667C24.3877 17.5 24.5996 17.5878 24.7559 17.7441C24.9122 17.9004 25 18.1123 25 18.3333C25 18.5543 24.9122 18.7663 24.7559 18.9226C24.5996 19.0789 24.3877 19.1667 24.1667 19.1667Z" fill="black"/>
<path d="M24.1667 10.8332H0.833333C0.61232 10.8332 0.400358 10.7454 0.244078 10.5891C0.0877973 10.4328 0 10.2209 0 9.99984C0 9.77882 0.0877973 9.56686 0.244078 9.41058C0.400358 9.2543 0.61232 9.1665 0.833333 9.1665H24.1667C24.3877 9.1665 24.5996 9.2543 24.7559 9.41058C24.9122 9.56686 25 9.77882 25 9.99984C25 10.2209 24.9122 10.4328 24.7559 10.5891C24.5996 10.7454 24.3877 10.8332 24.1667 10.8332Z" fill="black"/>
<path d="M24.1667 2.49992H0.833333C0.61232 2.49992 0.400358 2.41212 0.244078 2.25584C0.0877973 2.09956 0 1.8876 0 1.66659C0 1.44557 0.0877973 1.23361 0.244078 1.07733C0.400358 0.921049 0.61232 0.833252 0.833333 0.833252H24.1667C24.3877 0.833252 24.5996 0.921049 24.7559 1.07733C24.9122 1.23361 25 1.44557 25 1.66659C25 1.8876 24.9122 2.09956 24.7559 2.25584C24.5996 2.41212 24.3877 2.49992 24.1667 2.49992Z" fill="black"/>
</svg>
