<svg width="25" height="25" viewBox="0 0 25 25" fill="none" xmlns="http://www.w3.org/2000/svg">
<g clip-path="url(#clip0_42_1658)">
<path d="M14.8761 17.6007L14.4483 19.1973L3.27181 16.2026L3.69963 14.6059C3.69963 14.6059 4.55527 11.4126 10.1435 12.91C15.7318 14.4074 14.8761 17.6007 14.8761 17.6007ZM14.1142 9.26792C14.2622 8.7153 14.2431 8.13117 14.0592 7.58941C13.8753 7.04766 13.5349 6.5726 13.081 6.22431C12.6271 5.87603 12.0801 5.67016 11.5092 5.63274C10.9383 5.59532 10.3692 5.72803 9.87368 6.01409C9.37821 6.30015 8.97869 6.72672 8.72565 7.23984C8.47261 7.75295 8.3774 8.32959 8.45208 8.89681C8.52676 9.46404 8.76796 9.99638 9.14519 10.4265C9.52241 10.8567 10.0187 11.1653 10.5713 11.3134C11.3124 11.5119 12.102 11.408 12.7664 11.0244C13.4308 10.6408 13.9156 10.009 14.1142 9.26792ZM15.6839 14.3945C16.0729 14.9058 16.3451 15.4962 16.4814 16.124C16.6177 16.7518 16.6148 17.4019 16.4728 18.0285L16.045 19.6251L19.2383 20.4808L19.6661 18.8841C19.6661 18.8841 20.4426 15.9862 15.6839 14.3945ZM16.8586 7.00857C16.31 6.85828 15.7285 6.87856 15.1917 7.06674C15.4951 7.87424 15.5381 8.75644 15.3149 9.58966C15.0916 10.4229 14.6132 11.1653 13.9467 11.713C14.3176 12.1444 14.811 12.4526 15.3613 12.5968C16.1023 12.7954 16.8919 12.6914 17.5563 12.3078C18.2207 11.9242 18.7055 11.2924 18.9041 10.5514C19.1026 9.81033 18.9987 9.02076 18.6151 8.35635C18.2315 7.69195 17.5997 7.20713 16.8586 7.00857Z" fill="#FBFBFB"/>
</g>
<defs>
<clipPath id="clip0_42_1658">
<rect width="19.8356" height="19.8356" fill="white" transform="translate(5.74023 0.606636) rotate(15)"/>
</clipPath>
</defs>
</svg>
