<svg width="10" height="17" viewBox="0 0 10 17" fill="none" xmlns="http://www.w3.org/2000/svg">
<path d="M2.5 5.3125C2.5 4.14043 3.39687 3.1875 4.5 3.1875H5.5C6.60313 3.1875 7.5 4.14043 7.5 5.3125V5.43203C7.5 6.15586 7.15313 6.82988 6.58125 7.21836L5.2625 8.11817C4.8753 8.38268 4.5568 8.74625 4.33622 9.17554C4.11564 9.60483 4.00003 10.0861 4 10.5752V10.625C4 11.2127 4.44688 11.6875 5 11.6875C5.55312 11.6875 6 11.2127 6 10.625V10.5785C6 10.3063 6.13125 10.0539 6.34375 9.90781L7.6625 9.00801C8.80625 8.22442 9.5 6.87969 9.5 5.43203V5.3125C9.5 2.96504 7.70937 1.0625 5.5 1.0625H4.5C2.29063 1.0625 0.5 2.96504 0.5 5.3125C0.5 5.9002 0.946875 6.375 1.5 6.375C2.05313 6.375 2.5 5.9002 2.5 5.3125ZM5 15.9375C5.33152 15.9375 5.64946 15.7976 5.88388 15.5485C6.1183 15.2994 6.25 14.9616 6.25 14.6094C6.25 14.2571 6.1183 13.9193 5.88388 13.6703C5.64946 13.4212 5.33152 13.2813 5 13.2813C4.66848 13.2813 4.35054 13.4212 4.11612 13.6703C3.8817 13.9193 3.75 14.2571 3.75 14.6094C3.75 14.9616 3.8817 15.2994 4.11612 15.5485C4.35054 15.7976 4.66848 15.9375 5 15.9375Z" fill="#FBFBFB"/>
</svg>
